<svg xmlns="http://www.w3.org/2000/svg" version="1.1" xmlns:xlink="http://www.w3.org/1999/xlink" xmlns:svgjs="http://svgjs.dev/svgjs" width="1500" height="935" viewBox="0 0 1500 935"><g transform="matrix(1,0,0,1,-0.9090909090909918,0.3785425101214628)"><svg viewBox="0 0 396 247" data-background-color="#282634" preserveAspectRatio="xMidYMid meet" height="935" width="1500" xmlns="http://www.w3.org/2000/svg" xmlns:xlink="http://www.w3.org/1999/xlink"><g id="tight-bounds" transform="matrix(1,0,0,1,0.2400000000000091,-0.09999999999999432)"><svg viewBox="0 0 395.52 247.2" height="247.2" width="395.52"><g><svg></svg></g><g><svg viewBox="0 0 395.52 247.2" height="247.2" width="395.52"><g transform="matrix(1,0,0,1,75.54432,73.51789309116775)"><svg viewBox="0 0 244.43135999999998 100.16421381766449" height="100.16421381766449" width="244.43135999999998"><g><svg viewBox="0 0 244.43135999999998 100.16421381766449" height="100.16421381766449" width="244.43135999999998"><g><svg viewBox="0 0 244.43135999999998 100.16421381766449" height="100.16421381766449" width="244.43135999999998"><g id="textblocktransform"><svg viewBox="0 0 244.43135999999998 100.16421381766449" height="100.16421381766449" width="244.43135999999998" id="textblock"><g><svg viewBox="0 0 244.43135999999998 100.16421381766449" height="100.16421381766449" width="244.43135999999998"><rect width="244.43135999999998" height="100.16421381766449" x="0" y="0" opacity="1" fill="#ff4057" data-fill-palette-color="tertiary"></rect><g transform="matrix(1,0,0,1,14.5894968,14.5894968)"><svg width="215.25236639999997" viewBox="2.6 -33.13 126.52000000000001 41.730000000000004" height="70.98522021766449" data-palette-color="#282634"><path d="M14.95 0.6L14.95 0.6Q8.9 0.6 5.75-2.74 2.6-6.08 2.6-12.3L2.6-12.3 2.6-19.68Q2.6-25.88 5.75-29.21 8.9-32.55 14.95-32.55L14.95-32.55Q21-32.55 24.15-29.21 27.3-25.88 27.3-19.68L27.3-19.68 27.3-12.3Q27.3-6.08 24.15-2.74 21 0.6 14.95 0.6ZM14.95-2.88L14.95-2.88Q19-2.88 21.05-5.29 23.1-7.7 23.1-12.13L23.1-12.13 23.1-19.85Q23.1-24.28 21.05-26.68 19-29.08 14.95-29.08L14.95-29.08Q10.93-29.08 8.88-26.68 6.83-24.28 6.83-19.85L6.83-19.85 6.83-12.13Q6.83-7.7 8.88-5.29 10.93-2.88 14.95-2.88ZM40.85 0.55L40.85 0.55Q37.9 0.55 35.7-0.09 33.5-0.73 32.05-1.48L32.05-1.48 31.67-5.23Q33.5-4.28 35.69-3.58 37.87-2.88 40.65-2.88L40.65-2.88Q43.47-2.88 44.9-3.78 46.32-4.67 46.32-6.45L46.32-6.45 46.32-6.73Q46.32-7.88 45.78-8.63 45.25-9.38 43.85-9.95 42.45-10.53 39.87-11.1L39.87-11.1Q36.8-11.78 35.02-12.69 33.25-13.6 32.48-14.95 31.72-16.3 31.72-18.25L31.72-18.25 31.72-18.48Q31.72-21.68 33.95-23.33 36.17-24.98 40.65-24.98L40.65-24.98Q43.52-24.98 45.63-24.33 47.75-23.68 49.1-22.88L49.1-22.88 49.47-19.45Q47.85-20.4 45.75-21.03 43.65-21.65 41.02-21.65L41.02-21.65Q39.12-21.65 37.95-21.26 36.77-20.88 36.25-20.16 35.72-19.45 35.72-18.45L35.72-18.45 35.72-18.25Q35.72-17.15 36.25-16.39 36.77-15.63 38.13-15.06 39.5-14.5 41.92-13.98L41.92-13.98Q45.05-13.35 46.89-12.48 48.72-11.6 49.52-10.26 50.32-8.93 50.32-6.83L50.32-6.83 50.32-6.4Q50.32-2.95 47.92-1.2 45.52 0.55 40.85 0.55ZM75.64-15.63L75.64 0 71.59 0 71.59-15.18Q71.59-17.15 71.06-18.57 70.52-20 69.31-20.79 68.09-21.58 66-21.58L66-21.58Q64.07-21.58 62.67-20.85 61.27-20.13 60.41-18.89 59.55-17.65 59.2-16.07L59.2-16.07 58.3-18.95 59.34-18.95Q59.72-20.6 60.72-21.96 61.72-23.33 63.41-24.14 65.09-24.95 67.52-24.95L67.52-24.95Q70.42-24.95 72.21-23.85 74-22.75 74.82-20.69 75.64-18.63 75.64-15.63L75.64-15.63ZM59.32-17.85L59.32 0 55.27 0 55.27-33.13 59.3-33.13 59.3-25.18 59.17-18.18 59.32-17.85ZM91.62 0.63L91.62 0.63Q86.37 0.63 83.66-2.21 80.94-5.05 80.94-10.38L80.94-10.38 80.94-14.1Q80.94-19.4 83.67-22.23 86.39-25.05 91.62-25.05L91.62-25.05Q96.87-25.05 99.58-22.23 102.29-19.4 102.29-14.1L102.29-14.1 102.29-10.38Q102.29-5.05 99.58-2.21 96.87 0.63 91.62 0.63ZM91.62-2.68L91.62-2.68Q94.87-2.68 96.56-4.6 98.24-6.53 98.24-10.15L98.24-10.15 98.24-14.33Q98.24-17.93 96.56-19.84 94.87-21.75 91.62-21.75L91.62-21.75Q88.39-21.75 86.69-19.84 84.99-17.93 84.99-14.33L84.99-14.33 84.99-10.15Q84.99-6.53 86.69-4.6 88.39-2.68 91.62-2.68ZM119.94 0.53L119.94 0.53Q117.69 0.53 116.04-0.23 114.39-0.98 113.37-2.38 112.34-3.78 111.99-5.63L111.99-5.63 110.67-5.63 111.84-9.43Q111.94-7.23 112.83-5.76 113.72-4.3 115.24-3.58 116.77-2.85 118.69-2.85L118.69-2.85Q121.77-2.85 123.4-4.65 125.04-6.45 125.04-9.93L125.04-9.93 125.04-14.6Q125.04-18.05 123.42-19.85 121.79-21.65 118.69-21.65L118.69-21.65Q116.84-21.65 115.42-20.93 113.99-20.2 113.05-18.95 112.12-17.7 111.77-16.1L111.77-16.1 110.77-18.93 111.94-18.93Q112.34-20.6 113.3-21.96 114.27-23.33 115.95-24.14 117.64-24.95 120.12-24.95L120.12-24.95Q124.52-24.95 126.82-22.21 129.12-19.48 129.12-14.28L129.12-14.28 129.12-10.23Q129.12-4.98 126.8-2.23 124.49 0.53 119.94 0.53ZM111.94 0.68L111.94 8.6 107.92 8.6 107.92-24.4 111.97-24.4 111.79-18.53 111.84-17.28 111.84-7 111.82-6.18 111.94 0.68Z" opacity="1" transform="matrix(1,0,0,1,0,0)" fill="#282634" class="wordmark-text-0" data-fill-palette-color="quaternary" id="text-0"></path></svg></g></svg></g></svg></g></svg></g></svg></g></svg></g><g><path d="M245.816 0c68.262 0 123.6 55.338 123.6 123.6 0 68.262-55.338 123.6-123.6 123.6-49.007 0-91.352-28.521-111.343-69.871l1.55 0c19.884 40.556 61.578 68.477 109.793 68.478 67.493 0 122.207-54.714 122.206-122.207 0-67.493-54.714-122.207-122.206-122.207-48.215 0-89.908 27.922-109.793 68.478l-1.55 0c19.99-41.349 62.335-69.871 111.343-69.871z" fill="#ff4057" stroke="transparent" data-fill-palette-color="tertiary"></path></g></svg></g><defs></defs></svg><rect width="395.52" height="247.2" fill="none" stroke="none" visibility="hidden"></rect></g></svg></g></svg>